# xmcd CD database file
#
# Track frame offsets:
#	150
#	12290
#	23783
#	35390
#	46056
#	58360
#	79223
#	94803
#	111416
#	121221
#	135453
#	148719
#	161324
#	167256
#	172731
#
# Disc length: 2454 seconds
#
# Revision: 0
# Processed by: cddbd v1.5.2PL0 Copyright (c) Steve Scherf et al.
# Submitted via: CDex 1.51
#
DISCID=b709940f
DTITLE=Various Artist - Country Trilogy Collection  cd02
DYEAR=2011
DGENRE=Country
TTITLE0=Lynn Anderson - STAND BY YOUR MAN 
TTITLE1=Willie Nelson - IS THERE SOMETHING ON YOUR MIND 
TTITLE2=Dolly Parton /LETTER TO HEAVEN 
TTITLE3=Billie Jo Spears - I´M SO LONESOME I COULD CRY 
TTITLE4=Patsy Cline - CRAZY 
TTITLE5=Tanya Tucker /BABY I´M YOURS 
TTITLE6=Melba Montgomery - BLUE KENTUCKY GIRL 
TTITLE7=David Houston /FOR THE GOOD TIMES 
TTITLE8=Freddy Weller - THE WURLITZER PRIZE (I DON´T WANT TO GET OVER YOU)
TTITLE9=George Jones - OPEN PIT MINE 
TTITLE10=Jeanne Pruett - SATIN SHEETS 
TTITLE11=Farron Young - IT´S FOUR IN THE MORNING 
TTITLE12=Jim Reeves - HAVE I TOLD YOU LATELY THAT I LOVE YOU 
TTITLE13=Willie Nelson /THE GHOST 
TTITLE14=Patsy Cline - I´VE LOVED AND LOST AGAIN 
EXTD=YEAR: 2011
EXTT0=
EXTT1=
EXTT2=
EXTT3=
EXTT4=
EXTT5=
EXTT6=
EXTT7=
EXTT8=
EXTT9=
EXTT10=
EXTT11=
EXTT12=
EXTT13=
EXTT14=
PLAYORDER=
